<svg width="30" height="30" viewBox="0 0 30 30" fill="none" xmlns="http://www.w3.org/2000/svg">
<path d="M14.8434 0.123047C6.60002 0.123047 -0.0864258 6.80593 -0.0864258 15.0529C-0.0864258 23.2999 6.59646 29.9828 14.8434 29.9828C23.0904 29.9828 29.7733 23.2999 29.7733 15.0529C29.7733 6.80593 23.0904 0.123047 14.8434 0.123047ZM14.8434 25.5216C9.16653 25.5394 4.38898 20.7334 4.38898 15.0671C4.38898 13.0338 4.87953 9.91632 7.53136 10.3678C8.93547 10.6095 9.90591 10.6131 10.6808 9.22315C11.1394 8.40556 11.3811 7.48134 11.8432 6.66375C12.5222 5.4658 13.5637 4.92193 14.8434 4.8224C20.3035 4.40649 25.2979 9.36534 25.2979 15.0671C25.2979 20.7689 20.4919 25.5038 14.8434 25.5216Z" fill="url(#paint0_linear_2258_3802)"/>
<defs>
<linearGradient id="paint0_linear_2258_3802" x1="25.6143" y1="32.7732" x2="3.96596" y2="-2.84871" gradientUnits="userSpaceOnUse">
<stop stop-color="#FF93FF"/>
<stop offset="0.56" stop-color="#016BEF"/>
<stop offset="1" stop-color="#01E0FF"/>
</linearGradient>
</defs>
</svg>
