<svg width="208" height="78" viewBox="0 0 208 78" fill="none" xmlns="http://www.w3.org/2000/svg">
<path d="M39.4905 18.9062C28.4003 18.9062 19.4044 27.8332 19.4044 38.8496C19.4044 49.866 28.3952 58.793 39.4905 58.793C50.5857 58.793 59.5765 49.866 59.5765 38.8496C59.5765 27.8332 50.5857 18.9062 39.4905 18.9062ZM39.4905 52.835C31.8519 52.8585 25.4253 46.4389 25.4253 38.8698C25.4253 36.1542 26.0846 31.9887 29.6528 32.5929C31.5426 32.9151 32.8475 32.9201 33.8905 31.0639C34.5074 29.9714 34.832 28.7378 35.454 27.6452C36.3668 26.0458 37.768 25.3191 39.4905 25.1848C46.8366 24.6293 53.5556 31.2536 53.5556 38.8698C53.5556 46.4859 47.0902 52.8115 39.4905 52.835Z" fill="url(#paint0_linear_5296_9542)"/>
<path d="M71.7388 27.2981V51.9458H67.2408V27.2981H71.7388Z" fill="#182C35"/>
<path d="M78.0878 41.1152V51.947H73.6997V33.4605H77.8934V36.6023H78.1114C78.5391 35.5667 79.2237 34.7444 80.1652 34.1351C81.1067 33.5259 82.273 33.2205 83.6624 33.2205C84.9471 33.2205 86.0678 33.494 87.0262 34.0395C87.9829 34.5849 88.7266 35.3754 89.2557 36.4109C89.7848 37.4464 90.0451 38.7018 90.0383 40.1771V51.947H85.6503V40.8501C85.6503 39.6148 85.3291 38.6481 84.6868 37.9499C84.0445 37.2518 83.157 36.9027 82.0262 36.9027C81.2588 36.9027 80.5776 37.0688 79.9843 37.4028C79.391 37.7351 78.9262 38.2151 78.5898 38.8411C78.2551 39.4671 78.0861 40.2257 78.0861 41.1152H78.0878Z" fill="#182C35"/>
<path d="M106.495 38.3457L102.496 38.7787C102.383 38.3776 102.187 38 101.908 37.6476C101.629 37.2951 101.255 37.0098 100.787 36.7933C100.319 36.5768 99.744 36.4677 99.0662 36.4677C98.1535 36.4677 97.3877 36.6641 96.7691 37.0568C96.1504 37.4495 95.8462 37.9597 95.8546 38.5857C95.8462 39.1228 96.0456 39.5608 96.4547 39.8982C96.862 40.2355 97.5399 40.5124 98.4848 40.7289L101.661 41.4019C103.422 41.7796 104.734 42.377 105.594 43.1944C106.455 44.0134 106.889 45.0842 106.897 46.4083C106.889 47.5714 106.548 48.5969 105.873 49.483C105.199 50.3692 104.262 51.0623 103.067 51.5591C101.872 52.0559 100.498 52.3059 98.9462 52.3059C96.6677 52.3059 94.832 51.831 93.4425 50.8794C92.0531 49.9278 91.2248 48.6019 90.9578 46.9018L95.236 46.4923C95.4303 47.3264 95.8428 47.9558 96.4733 48.382C97.1038 48.8067 97.9236 49.0198 98.9344 49.0198C99.9452 49.0198 100.816 48.8067 101.45 48.382C102.083 47.9574 102.401 47.4304 102.401 46.8061C102.401 46.2774 102.197 45.8394 101.789 45.4937C101.382 45.1479 100.748 44.8844 99.8928 44.6998L96.7167 44.0386C94.93 43.6693 93.6099 43.045 92.7529 42.1673C91.8959 41.2895 91.4716 40.1751 91.4801 38.8274C91.4716 37.6878 91.7843 36.6993 92.4199 35.8602C93.0554 35.021 93.9395 34.3715 95.0737 33.91C96.2096 33.4484 97.5196 33.2185 99.0071 33.2185C101.189 33.2185 102.908 33.68 104.164 34.6031C105.42 35.5262 106.199 36.7732 106.499 38.3457H106.495Z" fill="#182C35"/>
<path d="M107.788 58.8785V33.4605H112.104V36.5183H112.357C112.584 36.0686 112.903 35.5902 113.316 35.08C113.728 34.5698 114.286 34.1335 114.988 33.7676C115.691 33.4017 116.588 33.2205 117.679 33.2205C119.117 33.2205 120.417 33.583 121.576 34.3097C122.736 35.0364 123.657 36.1072 124.34 37.5236C125.023 38.9401 125.364 40.6755 125.364 42.7281C125.364 44.7807 125.03 46.4825 124.359 47.9023C123.688 49.3222 122.775 50.4064 121.619 51.1515C120.462 51.8984 119.154 52.271 117.692 52.271C116.625 52.271 115.74 52.0947 115.037 51.7406C114.333 51.3882 113.77 50.9602 113.346 50.4584C112.922 49.9566 112.592 49.4816 112.359 49.0318H112.178V58.8768H107.79L107.788 58.8785ZM112.092 42.7029C112.092 43.8979 112.264 44.9451 112.608 45.8447C112.951 46.7426 113.448 47.4441 114.098 47.9443C114.749 48.4461 115.539 48.6962 116.468 48.6962C117.398 48.6962 118.25 48.4377 118.906 47.9191C119.56 47.4022 120.055 46.6923 120.39 45.7893C120.724 44.8864 120.894 43.8576 120.894 42.7029C120.894 41.5482 120.728 40.5362 120.397 39.6467C120.065 38.7555 119.572 38.0573 118.918 37.5522C118.263 37.047 117.447 36.7936 116.468 36.7936C115.49 36.7936 114.736 37.0386 114.08 37.527C113.426 38.0171 112.93 38.7018 112.596 39.5846C112.261 40.4674 112.092 41.5063 112.092 42.7012V42.7029Z" fill="#182C35"/>
<path d="M130.766 41.1157V51.9475H126.378V27.2998H130.67V36.6027H130.888C131.324 35.5604 132 34.7347 132.918 34.1289C133.836 33.523 135.004 33.2209 136.427 33.2209C137.72 33.2209 138.848 33.4894 139.809 34.0282C140.771 34.5652 141.517 35.3523 142.046 36.3879C142.575 37.4234 142.84 38.6871 142.84 40.1792V51.9492H138.452V40.8522C138.452 39.6085 138.131 38.6401 137.489 37.9453C136.846 37.2522 135.947 36.9048 134.793 36.9048C134.017 36.9048 133.324 37.0709 132.713 37.4049C132.103 37.7372 131.627 38.2172 131.283 38.8432C130.94 39.4692 130.768 40.2278 130.768 41.1173L130.766 41.1157Z" fill="#182C35"/>
<path d="M152.811 52.3059C150.945 52.3059 149.334 51.9182 147.98 51.1445C146.627 50.3708 145.587 49.2715 144.858 47.8466C144.132 46.4234 143.768 44.7434 143.768 42.81C143.768 40.8766 144.133 39.2369 144.865 37.7969C145.597 36.3569 146.621 35.2341 147.938 34.4269C149.255 33.6196 150.803 33.2168 152.582 33.2168C153.729 33.2168 154.814 33.3997 155.837 33.7639C156.86 34.1298 157.764 34.692 158.552 35.4557C159.339 36.2176 159.96 37.1877 160.413 38.3625C160.866 39.5373 161.092 40.9353 161.092 42.5566V43.8925H145.832V40.9555H156.887C156.878 40.1214 156.696 39.3762 156.341 38.7233C155.986 38.0688 155.491 37.5536 154.857 37.1776C154.221 36.8 153.484 36.612 152.644 36.612C151.746 36.612 150.959 36.8268 150.281 37.2565C149.603 37.6861 149.074 38.2484 148.699 38.9415C148.324 39.6363 148.131 40.3966 148.124 41.2223V43.7851C148.124 44.8609 148.322 45.7806 148.717 46.5476C149.113 47.3129 149.667 47.8987 150.377 48.3048C151.089 48.711 151.921 48.9124 152.874 48.9124C153.513 48.9124 154.091 48.8217 154.608 48.6422C155.125 48.4609 155.573 48.194 155.954 47.8416C156.334 47.4892 156.62 47.0511 156.814 46.5292L160.911 46.9873C160.653 48.0631 160.163 48.9996 159.439 49.7968C158.716 50.5957 157.793 51.2133 156.67 51.6497C155.546 52.0877 154.262 52.3059 152.815 52.3059H152.811Z" fill="#182C35"/>
<path d="M162.07 51.9451V33.4585H166.324V36.5399H166.519C166.858 35.4725 167.442 34.6485 168.27 34.0661C169.098 33.4837 170.045 33.1934 171.111 33.1934C171.355 33.1934 171.627 33.2034 171.929 33.2236C172.232 33.2437 172.485 33.2739 172.687 33.3142V37.322C172.501 37.2582 172.208 37.1995 171.808 37.1475C171.407 37.0954 171.022 37.0686 170.65 37.0686C169.85 37.0686 169.134 37.2398 168.498 37.5805C167.864 37.9212 167.364 38.3928 167 38.9953C166.637 39.5978 166.456 40.2909 166.456 41.0781V51.9451H162.068H162.07Z" fill="#182C35"/>
<path d="M180.344 52.3059C178.477 52.3059 176.867 51.9182 175.513 51.1445C174.159 50.3708 173.119 49.2715 172.391 47.8466C171.664 46.4234 171.3 44.7434 171.3 42.81C171.3 40.8766 171.665 39.2369 172.397 37.7969C173.128 36.3569 174.154 35.2341 175.47 34.4269C176.787 33.6196 178.335 33.2168 180.114 33.2168C181.261 33.2168 182.347 33.3997 183.367 33.7639C184.388 34.1281 185.294 34.692 186.082 35.4557C186.87 36.2176 187.49 37.1877 187.943 38.3625C188.396 39.5373 188.621 40.9353 188.621 42.5566V43.8925H173.361V40.9555H184.415C184.407 40.1214 184.226 39.3762 183.87 38.7233C183.515 38.0688 183.019 37.5536 182.385 37.1776C181.752 36.8 181.013 36.612 180.173 36.612C179.275 36.612 178.488 36.8268 177.81 37.2565C177.13 37.6861 176.603 38.2484 176.228 38.9415C175.852 39.6363 175.66 40.3966 175.651 41.2223V43.7851C175.651 44.8609 175.849 45.7806 176.244 46.5476C176.64 47.3146 177.194 47.8987 177.904 48.3048C178.616 48.711 179.448 48.9124 180.401 48.9124C181.04 48.9124 181.616 48.8217 182.135 48.6422C182.652 48.4609 183.1 48.194 183.481 47.8416C183.861 47.4892 184.147 47.0511 184.341 46.5292L188.438 46.9873C188.18 48.0631 187.688 48.9996 186.966 49.7968C186.243 50.5957 185.32 51.2133 184.196 51.6497C183.073 52.0877 181.787 52.3059 180.342 52.3059H180.344Z" fill="#182C35"/>
<defs>
<linearGradient id="paint0_linear_5296_9542" x1="53.9799" y1="62.5222" x2="25.158" y2="14.7546" gradientUnits="userSpaceOnUse">
<stop stop-color="#FF93FF"/>
<stop offset="0.56" stop-color="#016BEF"/>
<stop offset="1" stop-color="#01E0FF"/>
</linearGradient>
</defs>
</svg>
